{"accessors" : [{"bufferView" : 0, "byteOffset" : 0, "componentType" : 5123, "count" : 6, "type" : "SCALAR", "max" : [5], "min" : [0]}, {"bufferView" : 1, "byteOffset" : 0, "componentType" : 5126, "count" : 6, "type" : "VEC3", "max" : [82.4888916015625, 128, 0], "min" : [-82.4888916015625, -128, 0], "name" : "POSITION"}, {"bufferView" : 1, "byteOffset" : 12, "componentType" : 5126, "count" : 6, "type" : "VEC3", "max" : [0, 0, 1.0000044107437134], "min" : [0, 0, 1.0000044107437134], "name" : "NORMAL"}, {"bufferView" : 1, "byteOffset" : 24, "componentType" : 5126, "count" : 6, "type" : "VEC2", "max" : [1, 1], "min" : [0, 0], "name" : "TEXCOORD_0"}], "asset" : {"generator" : "Aspose.3D 24.2.0", "version" : "2.0"}, "buffers" : [{"uri" : "buffer.bin", "byteLength" : 212}], "bufferViews" : [{"buffer" : 0, "byteOffset" : 0, "byteLength" : 12, "target" : 34963}, {"buffer" : 0, "byteOffset" : 16, "byteLength" : 192, "byteStride" : 32, "target" : 34962}], "images" : [{"uri" : "card2d.png"}, {"uri" : "card2d.png"}], "materials" : [{"name" : "Bombay", "pbrMetallicRoughness" : {"baseColorFactor" : [1, 1, 1, 1], "baseColorTexture" : {"index" : 1, "texCoord" : 0}, "metallicFactor" : 1, "roughnessFactor" : 1}, "emissiveTexture" : {"index" : 0, "texCoord" : 0}, "emissiveFactor" : [1, 1, 1], "alphaMode" : "OPAQUE", "doubleSided" : false}], "meshes" : [{"primitives" : [{"attributes" : {"POSITION" : 1, "NORMAL" : 2, "TEXCOORD_0" : 3}, "indices" : 0, "material" : 0, "mode" : 4}], "name" : "card2d"}], "nodes" : [{"matrix" : [0.995408305463406, -0.0957199321691711, 4.889393312696646E-16, 0, 0.0957199321691711, 0.995408305463406, -4.451012490082715E-16, 0, -4.4408920985006257E-16, 4.898587196589413E-16, 1, 0, 4.260502546937445, -0.2878977067958664, 0, 1], "mesh" : 0, "name" : "card2d"}], "samplers" : [{"magFilter" : 9729, "minFilter" : 9729, "wrapS" : 10497, "wrapT" : 10497}, {"magFilter" : 9729, "minFilter" : 9729, "wrapS" : 10497, "wrapT" : 10497}], "scene" : 0, "scenes" : [{"nodes" : [0]}], "textures" : [{"sampler" : 0, "source" : 0, "name" : "card2d.png"}, {"sampler" : 1, "source" : 1, "name" : "card2d.png"}]}